<?xml version="1.0" standalone="no"?><!DOCTYPE svg PUBLIC "-//W3C//DTD SVG 1.1//EN" "http://www.w3.org/Graphics/SVG/1.1/DTD/svg11.dtd"><svg t="1684567739157" class="icon" viewBox="0 0 1024 1024" version="1.1" xmlns="http://www.w3.org/2000/svg" p-id="8585" xmlns:xlink="http://www.w3.org/1999/xlink" width="200" height="200"><path d="M495.13 402.4h417.71c25.96 0 47.2 21.24 47.2 47.2v249.08c0 25.96-21.24 47.2-47.2 47.2h-44.21c-8.4 0-13.8 9-9.76 16.36 8.49 15.47 22.82 32.28 46.66 40.22 14.35 4.78-98.18-5.28-159.25-49.62-6.18-4.48-13.57-6.97-21.2-6.97H495.13c-25.96 0-47.2-21.24-47.2-47.2V449.6c0-25.96 21.24-47.2 47.2-47.2z" fill="#D58F90" p-id="8586"></path><path d="M714.22 220.45H139.3c-41.44 0-75.34 33.91-75.34 75.34v335.98c0 41.44 33.91 75.34 75.34 75.34h64.45c6.83 0 11.37 7.06 8.53 13.27-11.07 24.21-32.12 53.92-71.08 66.9-20.58 6.86 143.12-7.84 228.86-72.68a37.04 37.04 0 0 1 22.34-7.49h321.82c41.44 0 75.34-33.91 75.34-75.34V295.8c0-41.44-33.9-75.35-75.34-75.35z" fill="#F5E5E5" p-id="8587"></path><path d="M517.29 340.49c-52.39-16.95-90.53 30.82-90.53 30.82s-38.14-47.77-90.53-30.82c-52.39 16.95-99.78 82.06-46.61 172.98 53.16 90.92 137.15 109.02 137.15 109.02s83.98-18.11 137.15-109.02c53.15-90.92 5.77-156.03-46.63-172.98z" fill="#C53938" p-id="8588"></path></svg>